<svg width="40" height="29" viewBox="0 0 40 29" fill="none" xmlns="http://www.w3.org/2000/svg">
<path d="M22.0762 23.998L24.6152 26.1953C27.2845 24.4701 29.5632 21.9798 31.4512 18.7246C33.3392 15.4368 34.2832 12.263 34.2832 9.20312C34.2832 6.85938 33.6647 5.18294 32.4277 4.17383C31.2233 3.13216 29.6771 2.61133 27.7891 2.61133C26.194 2.61133 24.8431 3.22982 23.7363 4.4668C22.6296 5.70378 22.0762 7.08724 22.0762 8.61719C22.0762 12.4583 24.1921 14.3789 28.4238 14.3789L28.6191 14.7207C27.903 17.9434 25.722 21.0358 22.0762 23.998ZM4.00977 23.998L6.5 26.1953C9.16927 24.4701 11.4479 21.9798 13.3359 18.7246C15.2565 15.4368 16.2168 12.263 16.2168 9.20312C16.2168 6.85938 15.5983 5.18294 14.3613 4.17383C13.1243 3.13216 11.5781 2.61133 9.72266 2.61133C8.09505 2.61133 6.72786 3.22982 5.62109 4.4668C4.54688 5.70378 4.00977 7.08724 4.00977 8.61719C4.00977 12.4583 6.10938 14.3789 10.3086 14.3789L10.5039 14.7207C9.85286 17.8783 7.68815 20.9707 4.00977 23.998ZM9.91797 28.6855H6.40234L0.982422 23.998C4.5957 20.9382 6.93945 18.3665 8.01367 16.2832C4.00977 15.6322 2.00781 13.0768 2.00781 8.61719C2.00781 6.53385 2.74023 4.67839 4.20508 3.05078C5.66992 1.42318 7.50911 0.609375 9.72266 0.609375C11.3177 0.609375 12.4245 0.625651 13.043 0.658203C13.694 0.690755 14.638 0.820964 15.875 1.04883C17.1445 1.27669 18.1699 1.73242 18.9512 2.41602C19.7324 3.06706 20.3835 3.92969 20.9043 5.00391C22.4993 2.07422 24.7943 0.609375 27.7891 0.609375C29.612 0.609375 31.1094 0.690755 32.2812 0.853516C33.4857 1.01628 34.7227 1.37435 35.9922 1.92773C37.2617 2.44857 38.2057 3.3112 38.8242 4.51562C39.4753 5.72005 39.8008 7.28255 39.8008 9.20312C39.8008 12.5234 38.6289 16.0879 36.2852 19.8965C33.974 23.7051 31.207 26.6348 27.9844 28.6855H24.5176L19.0977 23.998C22.7109 20.9382 25.0384 18.3665 26.0801 16.2832C23.7689 15.8926 22.1087 14.8997 21.0996 13.3047C20.3509 16.1693 18.9186 19.0339 16.8027 21.8984C14.7194 24.763 12.4245 27.0254 9.91797 28.6855Z" fill="#093437"/>
</svg>
